<svg class="diagram-root" style="background: #f5f6f6" xmlns="http://www.w3.org/2000/svg" xmlns:xlink="http://www.w3.org/1999/xlink"><style>.diagram-root { font-family: "Helvetica Neue", sans-serif; font-size: 12px; } .t { overflow: visible; } .t-bg { y: 40; fill: #fff;   } .th { fill: #005aa0;   } .tht { fill: #fff; font-size: 14px;  } .tf { fill: #323c46; overflow: visible; } .tf.pk { fill: #005aa0; font-weight: bold; } .tf.fk { font-weight: bold; } .ty { fill: #adb1b5; font-weight: normal; text-anchor: end; } .r { fill: transparent; stroke: #c3c3c3; stroke-width: 1; } .l { stroke: 1; } .i { fill: #c2c7ce; stroke: #c2c7ce; } .i.ix { fill: #afb3b6; stroke: #000; } .fa { fill: transparent; overflow: visible; } .fa .bg.hover { fill: #f7f7f7; } .c { cy: 12; r: 4; stroke: #d2d2dc; fill: #d2d2dc; } .hr { fill: transparent; stroke: #323c46; stroke-opacity: 0.035; stroke-width: 13; } .dc { stroke: #fa5a3c; fill: #fa5a3c; } .x { stroke: white; stroke-width: 1; } .hl .th { fill: #1b9bff; } .hl .tht {  } .fhl .bg { fill: #e7f4ff; } .fhls .bg {  } .r.hl { stroke: #1b9bff; } .dim { opacity: 0.25; }</style><g class="drawing-wrapper" transform="translate(-105, 16) scale(1,1)"><g class="rs"><path d="M 545.06 207 m -1, 0 a 1,1 0 1,0 2,0 a 1,1 0 1,0 -2,0 M 545.06 207 m -0.5, 0 a 0.5,0.5 0 1,0 1,0 a 0.5,0.5 0 1,0 -1,0  M545.06 207 L545.06 207 557.06 207 M 545.06 213 m -1, 0 a 1,1 0 1,0 2,0 a 1,1 0 1,0 -2,0 M 545.06 213 m -0.5, 0 a 0.5,0.5 0 1,0 1,0 a 0.5,0.5 0 1,0 -1,0  M545.06 213 L545.06 213 552.06 207 545.06 201 M 545.06 201 m -1, 0 a 1,1 0 1,0 2,0 a 1,1 0 1,0 -2,0 M 545.06 201 m -0.5, 0 a 0.5,0.5 0 1,0 1,0 a 0.5,0.5 0 1,0 -1,0  M557.06 207 Q 582.54 207, 608.03 139 T 659 71 M 671 71 m -1, 0 a 1,1 0 1,0 2,0 a 1,1 0 1,0 -2,0 M 671 71 m -0.5, 0 a 0.5,0.5 0 1,0 1,0 a 0.5,0.5 0 1,0 -1,0  M671 71 L671 71 659 71 M665 77 L665 77 665 65" id="h4073818891" class="r"></path><path d="M 379 232 m -1, 0 a 1,1 0 1,0 2,0 a 1,1 0 1,0 -2,0 M 379 232 m -0.5, 0 a 0.5,0.5 0 1,0 1,0 a 0.5,0.5 0 1,0 -1,0  M379 232 L379 232 367 232 M 379 238 m -1, 0 a 1,1 0 1,0 2,0 a 1,1 0 1,0 -2,0 M 379 238 m -0.5, 0 a 0.5,0.5 0 1,0 1,0 a 0.5,0.5 0 1,0 -1,0  M379 238 L379 238 372 232 379 226 M 379 226 m -1, 0 a 1,1 0 1,0 2,0 a 1,1 0 1,0 -2,0 M 379 226 m -0.5, 0 a 0.5,0.5 0 1,0 1,0 a 0.5,0.5 0 1,0 -1,0  M367 232 Q 336.01 232, 305.01 153 T 243.02 74 M 231.02 74 m -1, 0 a 1,1 0 1,0 2,0 a 1,1 0 1,0 -2,0 M 231.02 74 m -0.5, 0 a 0.5,0.5 0 1,0 1,0 a 0.5,0.5 0 1,0 -1,0  M231.02 74 L231.02 74 243.02 74 M237.02 80 L237.02 80 237.02 68" id="h2422122938" class="r"></path><path d="M 538.61 326 m -1, 0 a 1,1 0 1,0 2,0 a 1,1 0 1,0 -2,0 M 538.61 326 m -0.5, 0 a 0.5,0.5 0 1,0 1,0 a 0.5,0.5 0 1,0 -1,0  M538.61 326 L538.61 326 550.61 326 M 538.61 332 m -1, 0 a 1,1 0 1,0 2,0 a 1,1 0 1,0 -2,0 M 538.61 332 m -0.5, 0 a 0.5,0.5 0 1,0 1,0 a 0.5,0.5 0 1,0 -1,0  M538.61 332 L538.61 332 545.61 326 538.61 320 M 538.61 320 m -1, 0 a 1,1 0 1,0 2,0 a 1,1 0 1,0 -2,0 M 538.61 320 m -0.5, 0 a 0.5,0.5 0 1,0 1,0 a 0.5,0.5 0 1,0 -1,0  M550.61 326 Q 577.71 326, 604.81 198.5 T 659 71 M 671 71 m -1, 0 a 1,1 0 1,0 2,0 a 1,1 0 1,0 -2,0 M 671 71 m -0.5, 0 a 0.5,0.5 0 1,0 1,0 a 0.5,0.5 0 1,0 -1,0  M671 71 L671 71 659 71 M665 77 L665 77 665 65" id="h786433202" class="r"></path><path d="M 399 351 m -1, 0 a 1,1 0 1,0 2,0 a 1,1 0 1,0 -2,0 M 399 351 m -0.5, 0 a 0.5,0.5 0 1,0 1,0 a 0.5,0.5 0 1,0 -1,0  M399 351 L399 351 387 351 M 399 357 m -1, 0 a 1,1 0 1,0 2,0 a 1,1 0 1,0 -2,0 M 399 357 m -0.5, 0 a 0.5,0.5 0 1,0 1,0 a 0.5,0.5 0 1,0 -1,0  M399 357 L399 357 392 351 399 345 M 399 345 m -1, 0 a 1,1 0 1,0 2,0 a 1,1 0 1,0 -2,0 M 399 345 m -0.5, 0 a 0.5,0.5 0 1,0 1,0 a 0.5,0.5 0 1,0 -1,0  M387 351 Q 351.01 351, 315.01 212.5 T 243.02 74 M 231.02 74 m -1, 0 a 1,1 0 1,0 2,0 a 1,1 0 1,0 -2,0 M 231.02 74 m -0.5, 0 a 0.5,0.5 0 1,0 1,0 a 0.5,0.5 0 1,0 -1,0  M231.02 74 L231.02 74 243.02 74 M237.02 80 L237.02 80 237.02 68" id="h1323455032" class="r"></path><path d="M 542.7 563 m -1, 0 a 1,1 0 1,0 2,0 a 1,1 0 1,0 -2,0 M 542.7 563 m -0.5, 0 a 0.5,0.5 0 1,0 1,0 a 0.5,0.5 0 1,0 -1,0  M542.7 563 L542.7 563 554.7 563 M 542.7 569 m -1, 0 a 1,1 0 1,0 2,0 a 1,1 0 1,0 -2,0 M 542.7 569 m -0.5, 0 a 0.5,0.5 0 1,0 1,0 a 0.5,0.5 0 1,0 -1,0  M542.7 569 L542.7 569 549.7 563 542.7 557 M 542.7 557 m -1, 0 a 1,1 0 1,0 2,0 a 1,1 0 1,0 -2,0 M 542.7 557 m -0.5, 0 a 0.5,0.5 0 1,0 1,0 a 0.5,0.5 0 1,0 -1,0  M554.7 563 Q 580.78 563, 606.85 317 T 659 71 M 671 71 m -1, 0 a 1,1 0 1,0 2,0 a 1,1 0 1,0 -2,0 M 671 71 m -0.5, 0 a 0.5,0.5 0 1,0 1,0 a 0.5,0.5 0 1,0 -1,0  M671 71 L671 71 659 71 M665 77 L665 77 665 65" id="h3246656023" class="r"></path><path d="M 416 588 m -1, 0 a 1,1 0 1,0 2,0 a 1,1 0 1,0 -2,0 M 416 588 m -0.5, 0 a 0.5,0.5 0 1,0 1,0 a 0.5,0.5 0 1,0 -1,0  M416 588 L416 588 404 588 M 416 594 m -1, 0 a 1,1 0 1,0 2,0 a 1,1 0 1,0 -2,0 M 416 594 m -0.5, 0 a 0.5,0.5 0 1,0 1,0 a 0.5,0.5 0 1,0 -1,0  M416 594 L416 594 409 588 416 582 M 416 582 m -1, 0 a 1,1 0 1,0 2,0 a 1,1 0 1,0 -2,0 M 416 582 m -0.5, 0 a 0.5,0.5 0 1,0 1,0 a 0.5,0.5 0 1,0 -1,0  M404 588 Q 363.76 588, 323.51 331 T 243.02 74 M 231.02 74 m -1, 0 a 1,1 0 1,0 2,0 a 1,1 0 1,0 -2,0 M 231.02 74 m -0.5, 0 a 0.5,0.5 0 1,0 1,0 a 0.5,0.5 0 1,0 -1,0  M231.02 74 L231.02 74 243.02 74 M237.02 80 L237.02 80 237.02 68" id="h3462766619" class="r"></path><path d="M 538.7 451 m -1, 0 a 1,1 0 1,0 2,0 a 1,1 0 1,0 -2,0 M 538.7 451 m -0.5, 0 a 0.5,0.5 0 1,0 1,0 a 0.5,0.5 0 1,0 -1,0  M538.7 451 L538.7 451 550.7 451 M 538.7 457 m -1, 0 a 1,1 0 1,0 2,0 a 1,1 0 1,0 -2,0 M 538.7 457 m -0.5, 0 a 0.5,0.5 0 1,0 1,0 a 0.5,0.5 0 1,0 -1,0  M538.7 457 L538.7 457 545.7 451 538.7 445 M 538.7 445 m -1, 0 a 1,1 0 1,0 2,0 a 1,1 0 1,0 -2,0 M 538.7 445 m -0.5, 0 a 0.5,0.5 0 1,0 1,0 a 0.5,0.5 0 1,0 -1,0  M550.7 451 Q 577.78 451, 604.85 261 T 659 71 M 671 71 m -1, 0 a 1,1 0 1,0 2,0 a 1,1 0 1,0 -2,0 M 671 71 m -0.5, 0 a 0.5,0.5 0 1,0 1,0 a 0.5,0.5 0 1,0 -1,0  M671 71 L671 71 659 71 M665 77 L665 77 665 65" id="h521674475" class="r"></path><path d="M 412 476 m -1, 0 a 1,1 0 1,0 2,0 a 1,1 0 1,0 -2,0 M 412 476 m -0.5, 0 a 0.5,0.5 0 1,0 1,0 a 0.5,0.5 0 1,0 -1,0  M412 476 L412 476 400 476 M 412 482 m -1, 0 a 1,1 0 1,0 2,0 a 1,1 0 1,0 -2,0 M 412 482 m -0.5, 0 a 0.5,0.5 0 1,0 1,0 a 0.5,0.5 0 1,0 -1,0  M412 482 L412 482 405 476 412 470 M 412 470 m -1, 0 a 1,1 0 1,0 2,0 a 1,1 0 1,0 -2,0 M 412 470 m -0.5, 0 a 0.5,0.5 0 1,0 1,0 a 0.5,0.5 0 1,0 -1,0  M400 476 Q 360.76 476, 321.51 275 T 243.02 74 M 231.02 74 m -1, 0 a 1,1 0 1,0 2,0 a 1,1 0 1,0 -2,0 M 231.02 74 m -0.5, 0 a 0.5,0.5 0 1,0 1,0 a 0.5,0.5 0 1,0 -1,0  M231.02 74 L231.02 74 243.02 74 M237.02 80 L237.02 80 237.02 68" id="h2773176407" class="r"></path></g><g class="hrs"></g><g class="ts"><svg width="118.7" height="150" x="671" y="14" id="h2948373614" class="t"><rect height="40" width="118.7" class="th"></rect><text x="13" y="25" class="tht">users</text><rect height="110" width="118.7" class="t-bg"></rect><text x="13" y="61" class="tf pk">id<tspan x="105.7" class="ty">serial</tspan></text><path d="M7,14A2,2 0 0,1 5,12A2,2 0 0,1 7,10A2,2 0 0,1 9,12A2,2 0 0,1 7,14M12.65,10C11.83,7.67 9.61,6 7, 6A6, 6 0 0, 0 1, 12A6, 6 0 0, 0 7, 18C9.61, 18 11.83, 16.33 12.65, 14H17V18H21V14H23V10H12.65Z" class="i pk" transform="translate(57.02421875, 48) scale(0.65)"></path><text x="13" y="86" class="tf">username<tspan x="105.7" class="ty">text</tspan></text><text x="13" y="111" class="tf">password<tspan x="105.7" class="ty">text</tspan></text><text x="13" y="136" class="tf">email<tspan x="105.7" class="ty">text</tspan></text></svg><svg width="104.02" height="150" x="127" y="17" id="h1393863590" class="t"><rect height="40" width="104.02" class="th"></rect><text x="13" y="25" class="tht">movies</text><rect height="110" width="104.02" class="t-bg"></rect><text x="13" y="61" class="tf pk">id<tspan x="91.02" class="ty">serial</tspan></text><path d="M7,14A2,2 0 0,1 5,12A2,2 0 0,1 7,10A2,2 0 0,1 9,12A2,2 0 0,1 7,14M12.65,10C11.83,7.67 9.61,6 7, 6A6, 6 0 0, 0 1, 12A6, 6 0 0, 0 7, 18C9.61, 18 11.83, 16.33 12.65, 14H17V18H21V14H23V10H12.65Z" class="i pk" transform="translate(42.344218749999996, 48) scale(0.65)"></path><text x="13" y="86" class="tf">title<tspan x="91.02" class="ty">text</tspan></text><text x="13" y="111" class="tf">runtime<tspan x="91.02" class="ty">int</tspan></text><text x="13" y="136" class="tf">rating<tspan x="91.02" class="ty">float</tspan></text></svg><svg width="166.06" height="100" x="379" y="150" id="h1593865190" class="t"><rect height="40" width="166.06" class="th"></rect><text x="13" y="25" class="tht">users_favorite_movies</text><rect height="60" width="166.06" class="t-bg"></rect><text x="13" y="61" class="tf pk">user_id<tspan x="153.06" class="ty">int</tspan></text><path d="M7,14A2,2 0 0,1 5,12A2,2 0 0,1 7,10A2,2 0 0,1 9,12A2,2 0 0,1 7,14M12.65,10C11.83,7.67 9.61,6 7, 6A6, 6 0 0, 0 1, 12A6, 6 0 0, 0 7, 18C9.61, 18 11.83, 16.33 12.65, 14H17V18H21V14H23V10H12.65Z" class="i pk" transform="translate(120.386171875, 48) scale(0.65)"></path><text x="13" y="86" class="tf pk">movie_id<tspan x="153.06" class="ty">int</tspan></text><path d="M7,14A2,2 0 0,1 5,12A2,2 0 0,1 7,10A2,2 0 0,1 9,12A2,2 0 0,1 7,14M12.65,10C11.83,7.67 9.61,6 7, 6A6, 6 0 0, 0 1, 12A6, 6 0 0, 0 7, 18C9.61, 18 11.83, 16.33 12.65, 14H17V18H21V14H23V10H12.65Z" class="i pk" transform="translate(120.386171875, 73) scale(0.65)"></path></svg><svg width="139.61" height="100" x="399" y="269" id="h779280683" class="t"><rect height="40" width="139.61" class="th"></rect><text x="13" y="25" class="tht">users_watch_later</text><rect height="60" width="139.61" class="t-bg"></rect><text x="13" y="61" class="tf pk">user_id<tspan x="126.61000000000001" class="ty">int</tspan></text><path d="M7,14A2,2 0 0,1 5,12A2,2 0 0,1 7,10A2,2 0 0,1 9,12A2,2 0 0,1 7,14M12.65,10C11.83,7.67 9.61,6 7, 6A6, 6 0 0, 0 1, 12A6, 6 0 0, 0 7, 18C9.61, 18 11.83, 16.33 12.65, 14H17V18H21V14H23V10H12.65Z" class="i pk" transform="translate(93.93617187500001, 48) scale(0.65)"></path><text x="13" y="86" class="tf pk">movie_id<tspan x="126.61000000000001" class="ty">int</tspan></text><path d="M7,14A2,2 0 0,1 5,12A2,2 0 0,1 7,10A2,2 0 0,1 9,12A2,2 0 0,1 7,14M12.65,10C11.83,7.67 9.61,6 7, 6A6, 6 0 0, 0 1, 12A6, 6 0 0, 0 7, 18C9.61, 18 11.83, 16.33 12.65, 14H17V18H21V14H23V10H12.65Z" class="i pk" transform="translate(93.93617187500001, 73) scale(0.65)"></path></svg><svg width="126.7" height="100" x="416" y="506" id="h2905545396" class="t"><rect height="40" width="126.7" class="th"></rect><text x="13" y="25" class="tht">comments</text><rect height="60" width="126.7" class="t-bg"></rect><text x="13" y="61" class="tf pk">user_id<tspan x="113.7" class="ty">int</tspan></text><path d="M7,14A2,2 0 0,1 5,12A2,2 0 0,1 7,10A2,2 0 0,1 9,12A2,2 0 0,1 7,14M12.65,10C11.83,7.67 9.61,6 7, 6A6, 6 0 0, 0 1, 12A6, 6 0 0, 0 7, 18C9.61, 18 11.83, 16.33 12.65, 14H17V18H21V14H23V10H12.65Z" class="i pk" transform="translate(81.026171875, 48) scale(0.65)"></path><text x="13" y="86" class="tf pk">movie_id<tspan x="113.7" class="ty">int</tspan></text><path d="M7,14A2,2 0 0,1 5,12A2,2 0 0,1 7,10A2,2 0 0,1 9,12A2,2 0 0,1 7,14M12.65,10C11.83,7.67 9.61,6 7, 6A6, 6 0 0, 0 1, 12A6, 6 0 0, 0 7, 18C9.61, 18 11.83, 16.33 12.65, 14H17V18H21V14H23V10H12.65Z" class="i pk" transform="translate(81.026171875, 73) scale(0.65)"></path></svg><svg width="126.7" height="100" x="412" y="394" id="h11833858" class="t"><rect height="40" width="126.7" class="th"></rect><text x="13" y="25" class="tht">scores</text><rect height="60" width="126.7" class="t-bg"></rect><text x="13" y="61" class="tf pk">user_id<tspan x="113.7" class="ty">int</tspan></text><path d="M7,14A2,2 0 0,1 5,12A2,2 0 0,1 7,10A2,2 0 0,1 9,12A2,2 0 0,1 7,14M12.65,10C11.83,7.67 9.61,6 7, 6A6, 6 0 0, 0 1, 12A6, 6 0 0, 0 7, 18C9.61, 18 11.83, 16.33 12.65, 14H17V18H21V14H23V10H12.65Z" class="i pk" transform="translate(81.026171875, 48) scale(0.65)"></path><text x="13" y="86" class="tf pk">movie_id<tspan x="113.7" class="ty">int</tspan></text><path d="M7,14A2,2 0 0,1 5,12A2,2 0 0,1 7,10A2,2 0 0,1 9,12A2,2 0 0,1 7,14M12.65,10C11.83,7.67 9.61,6 7, 6A6, 6 0 0, 0 1, 12A6, 6 0 0, 0 7, 18C9.61, 18 11.83, 16.33 12.65, 14H17V18H21V14H23V10H12.65Z" class="i pk" transform="translate(81.026171875, 73) scale(0.65)"></path></svg></g></g><text class="qdbd-link" x="10" y="20">www.quickdatabasediagrams.com</text></svg>